<svg height="79" viewBox="0 0 54 79" width="54" xmlns="http://www.w3.org/2000/svg"><g fill-rule="evenodd"><g fill-rule="nonzero"><path d="m27.47 51.583-11.28 1.007-6.08-4.832-4.63 1.812 18.42 7.651 3.57-2.135z"/><path d="m38.88 40.872-1.66 15.301 5.39 2.859 4.95-2.698-4.42-2.416 2.64-14.013z"/><path d="m23.9 60.079-18.87-8.094.08 4.067 18.79 9.946z"/><path d="m26.91 70.871v-.242l-26.91-14.214.24 6.886 26.67 15.14 26.9-13.973v-7.046z"/><path d="m15.95 27.141-6.45 16.751 8.24 6.724 12.13-1.812-.73 12.403 4.02 2.174 7.63-3.463-5.56-2.939 2.03-15.503-20.66 3.261 11.08-4.187z"/><path d="m27.03 25.048 9.09 9.422 8.56 2.658-1.21-14.899-3.45 9.261-4.87-5.315c-.25 0-6.29 1.007-12.18-8.657l-6.21 3.583 11.61 18.161 13.8-1.611-9.5-2.818z"/></g><path d="m33.01.04c-.29-.04-.61-.04-.94-.04-.77 0-1.54.121-2.31.362-2.52.846-4.42 3.02-5.4 6.081-.93 2.98-.85 6.483.21 9.865 1.74 5.477 5.8 9.544 10.1 10.067.33.04.65.04.93.04.78 0 1.55-.12 2.32-.362 2.51-.846 4.46-2.98 5.39-6.08.94-2.98.86-6.483-.2-9.866-1.74-5.476-5.8-9.503-10.1-10.067zm-.69 12.725c.76 0 1.38-.613 1.38-1.369s-.62-1.369-1.38-1.369c-.77 0-1.38.613-1.38 1.369s.61 1.369 1.38 1.369zm2.27-6.282 4.38 11.235 2.48-.967z"/></g></svg>
