<svg fill="none" height="129" viewBox="0 0 24 129" width="24" xmlns="http://www.w3.org/2000/svg" xmlns:xlink="http://www.w3.org/1999/xlink"><mask id="a" fill="#fff"><path d="m10.1783.0397727c-.28064-.0397727-.60132-.0397727-.92201-.0397727-.76161 0-1.52323.119318-2.28485.357954-2.48528.835226-4.36929 2.982956-5.33133 6.005676-.921961 2.94318-.84179 6.40337.20042 9.74427 1.72367 5.4091 5.73219 9.4262 9.98117 9.9432.3207.0398.6414.0398.922.0398.7616 0 1.5232-.1193 2.2849-.358 2.4852-.8352 4.4093-2.9431 5.3313-6.0056.9219-2.9432.8418-6.4034-.2004-9.74435-1.7237-5.40909-5.7322-9.38636-9.9812-9.9431773z" fill="#fff"/></mask><path d="m10.1783.0397727-.21056 1.4851573.0078.0011.00781.00103zm-3.20686.3181813-.44849-1.431384-.01473.00462-.01462.00491zm-5.33133 6.005676-1.429368-.45492-.002046.00653zm.20042 9.74427-1.431964.4468.002778.0087zm9.98117 9.9432.1847-1.4886-.0035-.0004zm3.2069-.3182.4485 1.4314.0147-.0046.0146-.0049zm5.3313-6.0056-1.4314-.4484-.0025.0079-.0024.0081zm-.2004-9.74435 1.4319-.44672-.0027-.00871zm-9.7707-11.42833c-.40583-.05752-.83935-.05462-1.13251-.05462v3c.34821 0 .55605.0029.71145.02493zm-1.13251-.05462c-.92089 0-1.83357.14465-2.73334.42657l.89698 2.86277c.62346-.19535 1.23402-.28934 1.83636-.28934zm-2.76269.4361c-3.04498 1.0233226-5.21367 3.6133-6.282843 6.97261l2.858703.90984c.85492-2.68614 2.45423-4.39161 4.37982-5.03874zm-6.284904 6.97914c-1.026428 3.27667-.91914 7.05226.199897 10.63936l2.863887-.8934c-.9654-3.0946-1.01845-6.23949-.20096-8.84918zm.202648 10.64816c1.830196 5.7434 6.195386 10.3642 11.229256 10.9767l.3623-2.978c-3.4642-.4216-7.11605-3.8348-8.73317-8.9096zm11.225756 10.9763c.4268.0529.8381.0512 1.1066.0512v-3c-.2927 0-.5228-.0018-.7373-.0284zm1.1066.0512c.9209 0 1.8336-.1447 2.7334-.4266l-.897-2.8628c-.6235.1954-1.2341.2894-1.8364.2894zm2.7627-.4361c3.0281-1.0177 5.2545-3.5562 6.2898-6.9951l-2.8726-.8648c-.8087 2.686-2.4304 4.3634-4.3729 5.0162zm6.2849-6.9792c1.0264-3.2766.9191-7.0522-.1999-10.63936l-2.8639.89336c.9654 3.0947 1.0185 6.2396.201 8.8493zm-.2026-10.64808c-1.8338-5.75463-6.2005-10.317826-11.2155-10.97503l-.38985 2.97457c3.48295.45643 7.13335 3.84777 8.74695 8.91134z" fill="#000" mask="url(#a)"/><path d="m9.08946 12.3198c.7527 0 1.36294-.6055 1.36294-1.3523s-.61024-1.35227-1.36294-1.35227c-.75271 0-1.3629.60547-1.3629 1.35227s.61019 1.3523 1.3629 1.3523z" fill="#000" stroke="#fff" stroke-miterlimit="10" stroke-width=".050959"/><path d="m15.6642 17.2118-4.3292-11.09657 6.7744 10.14207z" fill="#000"/><g fill="#010101"><path d="m13.123 58.6078h-7.22806v-2.7407h6.87716c1.8246 0 2.8772-.9376 2.8772-2.5964 0-1.5146-1.0526-2.5243-2.4561-2.6686h-.0702-7.22806v-2.6686h6.87716c1.8246 0 2.8772-1.0097 2.8772-2.4521 0-1.731-1.2631-2.8128-2.8772-2.8128h-6.80698v-2.6686h11.92978v2.5243h-1.614c1.0526.6491 1.8246 1.731 1.8246 3.534 0 1.731-.772 3.1013-2.1755 3.8947 1.2632.7212 2.1755 2.0916 2.1755 3.9668-.0702 2.8128-2.0351 4.688-4.9825 4.688z"/><path d="m.00014869 61.2043 6.80702131 3.0292 11.01753-4.9044v3.0292l-8.14034 3.3176 8.14034 3.3177v2.9571l-17.82455143-7.8615z"/><path d="m13.123 95.8957h-7.22806v-2.7407h6.87716c1.8246 0 2.8772-.9376 2.8772-2.5964 0-1.5146-1.0526-2.5243-2.4561-2.6685h-.0702-7.22806v-2.7407h6.87716c1.8246 0 2.8772-1.0098 2.8772-2.4522 0-1.731-1.2631-2.8128-2.8772-2.8128h-6.80698v-2.6686h11.92978v2.5243h-1.614c1.0526.6491 1.8246 1.731 1.8246 3.5341 0 1.7309-.772 3.1013-2.1755 3.8946 1.2632.7213 2.1755 2.0916 2.1755 3.9668-.0702 2.8849-2.0351 4.7601-4.9825 4.7601z"/><path d="m21.965 101.449c-.9123 0-1.614-.793-1.614-1.7306s.7017-1.6588 1.614-1.6588 1.6141.7933 1.6141 1.6588c.0701 1.0096-.7018 1.7306-1.6141 1.7306zm-16.07015-3.0288h11.92985v2.6688h-11.92985z"/><path d="m13.123 114.72h-7.22806v-2.741h6.87716c1.8246 0 2.8772-1.082 2.8772-2.669 0-1.73-1.2631-2.812-2.8772-2.812h-6.80698v-2.669h11.92978v2.524h-1.614c1.0526.65 1.8246 1.803 1.8246 3.607-.0702 2.74-1.8948 4.76-4.9825 4.76z"/><path d="m5.89474 126.475h1.68421c-1.12281-.649-1.89474-2.163-1.89474-4.038 0-3.39 2.38597-5.915 6.17549-5.915 3.7894 0 6.1754 2.525 6.1754 5.915 0 1.875-.7018 3.245-1.6842 3.894h7.6491v2.669h-18.10526zm5.96496-7.212c-2.52636 0-3.92987 1.515-3.92987 3.606 0 2.02 1.26315 3.462 3.64907 3.462h.6316c2.386 0 3.6492-1.442 3.6492-3.462 0-2.091-1.4737-3.606-4-3.606z"/></g></svg>
